<?xml version="1.0" encoding="UTF-8"?>
<svg xmlns="http://www.w3.org/2000/svg" viewBox="0 0 442.597 125" width="442.597" height="125">
  <!-- FW Group — Horizontal Wordmark (Vector Outlines) -->

  <!-- FW — Bold -->
  <path d="M67.3000 101L27.5000 101L27.5000 97Q32 96.8000 34.2500 95.9500Q36.5000 95.1000 37.2500 92.7000Q38 90.3000 38 85.6000L38 85.6000L38 39.4000Q38 34.7000 37.3000 32.3500Q36.6000 30 34.6000 29.1000Q32.6000 28.2000 28.6000 28L28.6000 28L28.6000 24L89.8000 24L91 45.1000L86.8000 45.1000Q86 39.4000 84.1500 36Q82.3000 32.6000 78.5500 31.1000Q74.8000 29.6000 68.3000 29.6000L68.3000 29.6000L54.5000 29.6000Q52.7000 29.6000 52.7000 31.3000L52.7000 31.3000L52.7000 60.2000Q60.8000 60.2000 65.1000 59.2000Q69.4000 58.2000 71.2000 55.4000Q73 52.6000 73.5000 47.2000L73.5000 47.2000L77.2000 47.2000L77.2000 78.5000L73.5000 78.5000Q72.9000 74.3000 71.7500 71.7500Q70.6000 69.2000 68.4000 67.8500Q66.2000 66.5000 62.4000 66Q58.6000 65.5000 52.7000 65.5000L52.7000 65.5000L52.7000 84.9000Q52.7000 90 53.7000 92.5500Q54.7000 95.1000 57.8500 95.9500Q61 96.8000 67.3000 97L67.3000 97L67.3000 101Z" fill="#111111"/>
  <path d="M167.6330 41.3000L167.6330 41.3000L180.2330 81.6000L193.7330 43Q194.9330 39.6000 195.5330 37.1500Q196.1330 34.7000 196.1330 33L196.1330 33Q196.1330 29.9000 193.9830 28.9500Q191.8330 28 187.3330 28L187.3330 28L187.3330 24L215.7330 24L215.7330 28Q212.0330 28 208.9330 29.8500Q205.8330 31.7000 204.2330 36.1000L204.2330 36.1000L180.1330 102L171.2330 102L153.8330 49.2000L134.0330 102L125.7330 102L104.5330 43.6000Q102.0330 36.7000 99.8830 33.4000Q97.7330 30.1000 95.1830 29.1000Q92.6330 28.1000 88.7330 28.1000L88.7330 28.1000L88.7330 24L126.5330 24L126.5330 28.1000Q121.5330 28.1000 119.5830 29.0500Q117.6330 30 117.6330 32.2000L117.6330 32.2000Q117.6330 33.8000 118.1330 35.4500Q118.6330 37.1000 120.1330 41.3000L120.1330 41.3000L134.1330 81.6000L150.3330 37.4000Q149.0330 33.7000 147.5830 31.8500Q146.1330 30 144.0830 29.2000Q142.0330 28.4000 138.8330 28.1000L138.8330 28.1000L138.8330 24L174.1330 24L174.1330 28.1000Q170.0330 28.1000 167.9830 29.1500Q165.9330 30.2000 165.9330 33.2000L165.9330 33.2000Q165.9330 34.7000 166.3830 36.7000Q166.8330 38.7000 167.6330 41.3000Z" fill="#111111"/>

  <!-- GROUP — Regular -->
  <path d="M249.0650 101.4400L249.0650 101.4400Q244.0930 101.4400 240.4630 99.3720Q236.8330 97.3040 234.8530 93.5420Q232.8730 89.7800 232.8730 84.6320L232.8730 84.6320Q232.8730 79.3080 235.0070 75.2600Q237.1410 71.2120 240.9470 68.9460Q244.7530 66.6800 249.7250 66.6800L249.7250 66.6800Q252.3650 66.6800 254.7190 67.4280Q257.0730 68.1760 259.7570 69.8480L259.7570 69.8480L260.6810 67.1200L262.2210 67.1200L261.6490 77.2400L259.5370 77.2400Q259.5370 74.3800 258.1730 72.5540Q256.8090 70.7280 254.6530 69.8480Q252.4970 68.9680 250.1210 68.9680L250.1210 68.9680Q246.5570 68.9680 244.0270 70.8160Q241.4970 72.6640 240.1330 76.1180Q238.7690 79.5720 238.7690 84.3680L238.7690 84.3680Q238.7690 91.4080 241.7390 95.2360Q244.7090 99.0640 250.2530 99.0640L250.2530 99.0640Q253.1130 99.0640 255.1150 98.1840Q257.1170 97.3040 258.1730 95.8960Q259.2290 94.4880 259.2290 92.8600L259.2290 92.8600Q259.2290 90.2640 258.1950 89.3840Q257.1610 88.5040 254.8290 88.5040L254.8290 88.5040L254.8290 86.8320L267.3250 86.8320L267.3250 88.5040Q265.1690 88.5040 264.4430 89.3180Q263.7170 90.1320 263.7170 92.4200L263.7170 92.4200L263.7170 97.3480Q262.6170 97.3480 261.7150 97.5020Q260.8130 97.6560 259.7350 98.0960Q258.6570 98.5360 256.9850 99.5040L256.9850 99.5040Q255.4890 100.3400 253.4430 100.8900Q251.3970 101.4400 249.0650 101.4400Z" fill="#111111"/>
  <path d="M299.2250 75.6120L299.2250 75.6120Q299.2250 79.0880 297.1130 81.4420Q295.0010 83.7960 290.3810 84.5880L290.3810 84.5880L300.1050 96.2920Q301.2930 97.7440 302.7450 98.3820Q304.1970 99.0200 306.1330 99.3280L306.1330 99.3280L306.1330 101L297.6410 101L286.8610 87.1840Q286.1130 86.1720 285.4530 85.6880Q284.7930 85.2040 283.9350 85.0720Q283.0770 84.9400 281.7130 84.9400L281.7130 84.9400L281.7130 94.0920Q281.7130 96.2480 282.1310 97.3920Q282.5490 98.5360 283.8470 98.9320Q285.1450 99.3280 287.7850 99.3280L287.7850 99.3280L287.7850 101L272.2530 101L272.2530 99.3280Q274.3210 99.2400 275.3550 98.8660Q276.3890 98.4920 276.7410 97.4360Q277.0930 96.3800 277.0930 94.3120L277.0930 94.3120L277.0930 73.8080Q277.0930 71.7400 276.7850 70.7060Q276.4770 69.6720 275.5310 69.2760Q274.5850 68.8800 272.6930 68.7920L272.6930 68.7920L272.6930 67.1200L286.5090 67.1200Q292.5370 67.1200 295.8810 69.3640Q299.2250 71.6080 299.2250 75.6120ZM281.7130 69.9360L281.7130 69.9360L281.7130 82.7400L284.8370 82.7400Q289.1930 82.7400 291.3490 81.1120Q293.5050 79.4840 293.5050 75.8320L293.5050 75.8320Q293.5050 72.3120 291.8110 70.7500Q290.1170 69.1880 286.5090 69.1880L286.5090 69.1880L282.4610 69.1880Q281.7130 69.1880 281.7130 69.9360Z" fill="#111111"/>
  <path d="M326.6810 66.6800L326.6810 66.6800Q330.5530 66.6800 333.8750 68.0220Q337.1970 69.3640 339.6830 71.7620Q342.1690 74.1600 343.5770 77.3720Q344.9850 80.5840 344.9850 84.3240L344.9850 84.3240Q344.9850 87.8880 343.5770 91.0120Q342.1690 94.1360 339.6610 96.4680Q337.1530 98.8000 333.8310 100.1200Q330.5090 101.4400 326.6810 101.4400L326.6810 101.4400Q322.8530 101.4400 319.5310 100.1200Q316.2090 98.8000 313.7010 96.4680Q311.1930 94.1360 309.7850 91.0120Q308.3770 87.8880 308.3770 84.3240L308.3770 84.3240Q308.3770 80.5840 309.7850 77.3720Q311.1930 74.1600 313.6790 71.7620Q316.1650 69.3640 319.4870 68.0220Q322.8090 66.6800 326.6810 66.6800ZM326.6810 99.0200L326.6810 99.0200Q330.5530 99.0200 333.3690 97.2380Q336.1850 95.4560 337.7250 92.1780Q339.2650 88.9000 339.2650 84.4560L339.2650 84.4560Q339.2650 79.7480 337.7250 76.2940Q336.1850 72.8400 333.3690 70.9700Q330.5530 69.1000 326.6810 69.1000L326.6810 69.1000Q322.8090 69.1000 319.9930 70.9700Q317.1770 72.8400 315.6370 76.2940Q314.0970 79.7480 314.0970 84.4560L314.0970 84.4560Q314.0970 88.9000 315.6370 92.1780Q317.1770 95.4560 319.9930 97.2380Q322.8090 99.0200 326.6810 99.0200Z" fill="#111111"/>
  <path d="M380.4930 78.4720L380.4930 78.4720L380.4930 87.3600Q380.4930 91.9800 379.2390 95.1260Q377.9850 98.2720 375.2130 99.8560Q372.4410 101.4400 367.8210 101.4400L367.8210 101.4400Q363.5090 101.4400 360.6270 100.2520Q357.7450 99.0640 356.3150 96.3360Q354.8850 93.6080 354.8850 88.9880L354.8850 88.9880L354.8850 77.3720Q354.8850 75.1720 354.8410 73.6980Q354.7970 72.2240 354.5770 71.2560Q354.3570 70.2880 353.8290 69.7600L353.8290 69.7600Q353.3010 69.1880 352.3990 68.9900Q351.4970 68.7920 350.0010 68.7920L350.0010 68.7920L350.0010 67.1200L365.0050 67.1200L365.0050 68.7920Q363.5090 68.7920 362.5850 68.9680Q361.6610 69.1440 361.1330 69.8480L361.1330 69.8480Q360.5610 70.6400 360.3630 72.3780Q360.1650 74.1160 360.1650 77.3720L360.1650 77.3720L360.1650 89.3400Q360.1650 93.8280 362.1450 96.2700Q364.1250 98.7120 369.0530 98.7120L369.0530 98.7120Q373.4530 98.7120 375.6530 96.2480Q377.8530 93.7840 377.8530 89.0760L377.8530 89.0760L377.8530 78.4720Q377.8530 74.5560 377.5670 72.5320Q377.2810 70.5080 376.4010 69.6720L376.4010 69.6720Q375.8290 69.1000 374.8830 68.9460Q373.9370 68.7920 372.5730 68.7920L372.5730 68.7920L372.5730 67.1200L385.3330 67.1200L385.3330 68.7920Q383.9690 68.7920 383.0450 69.0120Q382.1210 69.2320 381.5930 69.9800L381.5930 69.9800Q380.9330 70.9040 380.7130 72.8620Q380.4930 74.8200 380.4930 78.4720Z" fill="#111111"/>
  <path d="M417.3210 75.6120L417.3210 75.6120Q417.3210 78.6920 415.9790 80.9360Q414.6370 83.1800 411.6670 84.3900Q408.6970 85.6000 403.7690 85.6000L403.7690 85.6000L399.8090 85.6000L399.8090 94.0920Q399.8090 96.2480 400.2270 97.3920Q400.6450 98.5360 401.9430 98.9320Q403.2410 99.3280 405.8810 99.3280L405.8810 99.3280L405.8810 101L390.3490 101L390.3490 99.3280Q392.4170 99.2400 393.4510 98.8660Q394.4850 98.4920 394.8370 97.4360Q395.1890 96.3800 395.1890 94.3120L395.1890 94.3120L395.1890 73.8080Q395.1890 71.7400 394.8810 70.7060Q394.5730 69.6720 393.6270 69.2760Q392.6810 68.8800 390.7890 68.7920L390.7890 68.7920L390.7890 67.1200L404.6050 67.1200Q410.6330 67.1200 413.9770 69.3640Q417.3210 71.6080 417.3210 75.6120ZM399.8090 69.9360L399.8090 69.9360L399.8090 83.4000L402.9330 83.4000Q407.2890 83.4000 409.4450 81.7060Q411.6010 80.0120 411.6010 76.1400L411.6010 76.1400Q411.6010 72.4440 409.9070 70.8160Q408.2130 69.1880 404.6050 69.1880L404.6050 69.1880L400.5570 69.1880Q399.8090 69.1880 399.8090 69.9360Z" fill="#111111"/>
</svg>